<?xml version="1.0" standalone="no"?>
<!DOCTYPE svg PUBLIC "-//W3C//DTD SVG 20010904//EN"
 "http://www.w3.org/TR/2001/REC-SVG-20010904/DTD/svg10.dtd">
<svg version="1.0" xmlns="http://www.w3.org/2000/svg"
 width="260.000000pt" height="260.000000pt" viewBox="0 0 260.000000 260.000000"
 preserveAspectRatio="xMidYMid meet">
<metadata>
Created by potrace 1.11, written by Peter Selinger 2001-2013
</metadata>
<g transform="translate(0.000000,260.000000) scale(0.100000,-0.100000)"
fill="#000000" stroke="none">
<path d="M1240 2562 c-31 -15 -80 -38 -110 -51 -179 -78 -180 -79 -180 -103 0
-13 -1 -368 -1 -790 0 -423 -2 -768 -4 -768 -6 0 -53 40 -102 87 l-33 31 -1
594 c0 326 -1 629 -1 674 0 59 -5 87 -17 102 l-16 21 -135 -60 c-74 -34 -154
-69 -176 -79 l-41 -19 1 -681 1 -681 67 -62 c36 -34 123 -116 193 -182 142
-134 146 -138 341 -320 76 -72 170 -160 207 -196 l68 -65 73 70 c41 39 149
143 242 231 158 151 213 202 459 438 l99 95 1 143 c1 79 0 149 -3 156 -7 22
-47 9 -132 -46 -195 -125 -239 -153 -333 -216 -38 -25 -72 -45 -75 -45 -4 0
-6 82 -5 183 2 223 1 207 16 207 6 0 127 38 267 83 l255 83 5 90 c3 49 3 117
2 151 -4 62 -4 63 -30 59 -15 -3 -67 -8 -117 -11 -49 -4 -108 -8 -130 -10 -22
-2 -84 -6 -138 -10 -53 -4 -105 -8 -114 -9 -16 -1 -17 14 -18 149 l0 150 25
-1 c27 -1 65 -6 215 -29 55 -9 120 -18 145 -21 25 -3 59 -9 75 -13 36 -10 73
2 82 25 7 18 11 272 5 292 -2 6 -10 12 -18 12 -7 0 -30 9 -51 19 -21 11 -184
83 -363 161 -179 78 -349 153 -378 166 -29 13 -56 24 -60 23 -4 0 -32 -13 -62
-27z"/>
</g>
</svg>
