<svg id="logo" xmlns="http://www.w3.org/2000/svg" width="323.875" height="110" viewBox="0 0 323.875 110">
  <metadata><?xpacket begin="﻿" id="W5M0MpCehiHzreSzNTczkc9d"?>
<x:xmpmeta xmlns:x="adobe:ns:meta/" x:xmptk="Adobe XMP Core 5.6-c138 79.159824, 2016/09/14-01:09:01        ">
   <rdf:RDF xmlns:rdf="http://www.w3.org/1999/02/22-rdf-syntax-ns#">
      <rdf:Description rdf:about=""/>
   </rdf:RDF>
</x:xmpmeta>
                                                                                                    
                                                                                                    
                                                                                                    
                                                                                                    
                                                                                                    
                                                                                                    
                                                                                                    
                                                                                                    
                                                                                                    
                                                                                                    
                                                                                                    
                                                                                                    
                                                                                                    
                                                                                                    
                                                                                                    
                                                                                                    
                                                                                                    
                                                                                                    
                                                                                                    
                                                                                                    
                           
<?xpacket end="w"?></metadata>
<defs>
    <style>
      .cls-1 {
        fill: #fff;
        fill-rule: evenodd;
      }
    </style>
  </defs>
  <path class="cls-1" d="M239.226,131L200,96.263V36.921L239.462,21,276,38.368V96.263ZM219.613,88.222V38.111l-13.484,6.111V93.111L238,120.181V30.111l-12.258,5.556V93.111Zm50.258-7.333L249.032,93.111V79.666l20.839-7.333v-11l-20.839,2.444V51.555L269.871,54V44.222L239.226,29.555v91.667l30.645-29.333v-11Z" transform="translate(-200 -21)"/>
  <g id="text">
    <path id="UPPER_ECHELON" data-name="UPPER ECHELON" class="cls-1" d="M317.006,82.3q4.028,0,5.985-2.28t1.957-6.764v-23.9H318.6V72.994a7.678,7.678,0,0,1-.3,2.451,1.4,1.4,0,0,1-2.584-.019,7.676,7.676,0,0,1-.3-2.432V49.358h-6.346v23.9q0,4.484,1.957,6.764t5.985,2.28h0Zm10.45-.3h6.422V69.08h2.66q3.837,0,5.32-2.47t1.482-7.334q0-4.864-1.672-7.391t-5.586-2.527h-8.626V82Zm6.422-18.81v-7.9H334.6a1.838,1.838,0,0,1,1.824.912,7.065,7.065,0,0,1,.456,2.964,12.135,12.135,0,0,1-.171,2.337,2.077,2.077,0,0,1-.722,1.254,2.776,2.776,0,0,1-1.729.437h-0.38ZM345.391,82h6.422V69.08h2.66q3.838,0,5.32-2.47t1.482-7.334q0-4.864-1.672-7.391t-5.586-2.527h-8.626V82Zm6.422-18.81v-7.9h0.722a1.838,1.838,0,0,1,1.824.912,7.065,7.065,0,0,1,.456,2.964,12.135,12.135,0,0,1-.171,2.337,2.077,2.077,0,0,1-.722,1.254,2.774,2.774,0,0,1-1.729.437h-0.38Zm25,18.81V75.654h-6.84V68.168h6.156V62.012h-6.156V55.666H376.4V49.358H363.327V82h13.49Zm2.165,0h6.612V67.1a3.541,3.541,0,0,1,1.938.38,2.105,2.105,0,0,1,.532,1.748V82h6.384l0.076-12.35a6.509,6.509,0,0,0-.665-3.192,3.022,3.022,0,0,0-2.147-1.482,4.052,4.052,0,0,0,2.508-2.166,10.535,10.535,0,0,0,.722-4.332,22.615,22.615,0,0,0-.456-5,5.383,5.383,0,0,0-1.767-3.04,5.666,5.666,0,0,0-3.7-1.083H378.982V82Zm6.65-20.558V55.4h1.52a1.357,1.357,0,0,1,.874.247,1.44,1.44,0,0,1,.418.893,12.111,12.111,0,0,1,.114,1.938q0,2.964-1.368,2.964h-1.558ZM419.49,82V75.654h-6.84V68.168h6.156V62.012H412.65V55.666h6.422V49.358H406V82h13.49Zm9.765,0.3q8.245,0,8.246-8.208V67.94h-6.574v5.89q0,2.471-1.52,2.47a1.265,1.265,0,0,1-1.14-.589,3.576,3.576,0,0,1-.38-1.881V57.452a3.913,3.913,0,0,1,.323-1.786,1.231,1.231,0,0,1,1.2-.608,1.292,1.292,0,0,1,1.178.532,3.867,3.867,0,0,1,.342,1.938v4.826h6.5V56.73a7.26,7.26,0,0,0-2.2-5.7,8.382,8.382,0,0,0-5.814-1.976q-4.141,0-6.08,2.47t-1.938,7.334V73.906a8.534,8.534,0,0,0,2.147,6.156,7.549,7.549,0,0,0,5.719,2.242h0Zm16.91-.3V67.18h3.078V82h6.5V49.358h-6.5V61.024h-3.078V49.358h-6.5V82h6.5Zm25.954,0V75.654h-6.84V68.168h6.156V62.012h-6.156V55.666H471.7V49.358H458.629V82h13.49Zm15.427,0V76.452H480.82V49.358h-6.536V82h13.262Zm9.614,0.3a7.473,7.473,0,0,0,6-2.394q2.052-2.394,2.052-6.8V57.566q0-4.218-2.052-6.365a9.468,9.468,0,0,0-12.008,0q-2.052,2.147-2.052,6.365V73.108a10.162,10.162,0,0,0,2.052,6.783,7.441,7.441,0,0,0,6,2.413h0Zm0-6a1.262,1.262,0,0,1-1.254-.722,5.154,5.154,0,0,1-.342-2.128V57.528q0-2.47,1.634-2.47a1.132,1.132,0,0,1,1.159.665,4.439,4.439,0,0,1,.285,1.729v15.96a5.934,5.934,0,0,1-.3,2.128,1.155,1.155,0,0,1-1.178.76h0ZM514.222,82V65.66L517.49,82h6.384V49.358h-6.308V64.976l-3-15.618h-6.726V82h6.384Z" transform="translate(-200 -21)"/>
    <path id="GAMERS" class="cls-1" d="M317.688,95.008v1.8h5.04V97.36a3.661,3.661,0,0,1-1.308,3.024,5.2,5.2,0,0,1-3.372,1.056,4.925,4.925,0,0,1-4.008-1.668,7.121,7.121,0,0,1-1.392-4.692,7.914,7.914,0,0,1,.672-3.4,5.09,5.09,0,0,1,1.884-2.2,5.156,5.156,0,0,1,2.82-.768,5.433,5.433,0,0,1,2.868.72,4.088,4.088,0,0,1,1.716,2.064l1.752-.96a6.4,6.4,0,0,0-2.46-2.736,7.617,7.617,0,0,0-3.876-.888,7.417,7.417,0,0,0-3.876,1,6.728,6.728,0,0,0-2.592,2.844,9.547,9.547,0,0,0-.924,4.32,9.74,9.74,0,0,0,.9,4.332,6.613,6.613,0,0,0,2.556,2.832,7.4,7.4,0,0,0,3.888,1,6.9,6.9,0,0,0,3.036-.612,4.551,4.551,0,0,0,1.956-1.764L323.04,103h1.44V95.008h-6.792Zm44.9,7.992h2.04l-6.144-15.84h-2.28L350.04,103h2.016l1.68-4.392h7.176Zm-8.16-6.192,2.16-5.688,0.7-2.136h0.048l0.744,2.208,2.136,5.616h-5.784ZM406.2,87.16h-2.952l-3.456,9.648-1.224,3.936H398.52l-1.2-3.96-3.48-9.624h-2.952V103h1.824V93.04L392.5,88.864h0.024L397.728,103h1.632l5.208-14.136h0.024l-0.216,4.176V103H406.2V87.16Zm30.143,14.04V95.872H443.5v-1.8h-7.152V88.96h9.192v-1.8H434.423V103H445.9v-1.8h-9.552Zm46.464,1.8h2.28l-4.464-6.792a4.77,4.77,0,0,0,2.568-1.584,4.345,4.345,0,0,0,.936-2.832,4.216,4.216,0,0,0-1.464-3.384,5.791,5.791,0,0,0-3.888-1.248h-6V103h1.92V96.424h3.792ZM474.7,88.96h4.056q3.36,0,3.36,2.832t-3.36,2.832H474.7V88.96Zm42.168-2.04a7.222,7.222,0,0,0-3.12.636,4.953,4.953,0,0,0-2.064,1.716,4.156,4.156,0,0,0-.72,2.352,3.448,3.448,0,0,0,1.32,2.88,10.453,10.453,0,0,0,4.488,1.584,9.916,9.916,0,0,1,3.408,1.056,1.917,1.917,0,0,1,.96,1.68,2.154,2.154,0,0,1-1.1,1.932,5.613,5.613,0,0,1-2.976.684,5.9,5.9,0,0,1-3.156-.78,4.921,4.921,0,0,1-1.908-2.2l-1.656,1.344a6.519,6.519,0,0,0,2.58,2.5,8.339,8.339,0,0,0,4.092.936,8.517,8.517,0,0,0,3.216-.564,4.868,4.868,0,0,0,2.148-1.584,3.863,3.863,0,0,0,.756-2.364,3.555,3.555,0,0,0-1.308-2.928,9.91,9.91,0,0,0-4.452-1.584,13.921,13.921,0,0,1-2.628-.66,3.232,3.232,0,0,1-1.356-.876,1.956,1.956,0,0,1-.408-1.272,2.3,2.3,0,0,1,1.044-1.932,4.806,4.806,0,0,1,2.868-.756,4.884,4.884,0,0,1,2.724.66,5.161,5.161,0,0,1,1.716,2.244l1.656-1.344a6.466,6.466,0,0,0-6.12-3.36h0Z" transform="translate(-200 -21)"/>
  </g>
</svg>
